<?xml version="1.0" encoding="utf-8"?>
<!-- Generator: Adobe Illustrator 26.0.3, SVG Export Plug-In . SVG Version: 6.00 Build 0)  -->
<svg version="1.1" id="Layer_1" xmlns="http://www.w3.org/2000/svg" xmlns:xlink="http://www.w3.org/1999/xlink" x="0px" y="0px"
	 viewBox="0 0 256 256" style="enable-background:new 0 0 256 256;" xml:space="preserve">
<style type="text/css">
	.st0{enable-background:new    ;}
	.st1{fill:#E42A6D;}
	.st2{display:none;}
	.st3{display:none;enable-background:new    ;}
	.st4{display:inline;fill:#FFFFFF;}
	.st5{fill:#FFFFFF;}
</style>
<g class="st0">
	<path class="st1" d="M185.9,0.4v212.2h-25.6c-3.8,0-7-0.6-9.5-1.8c-2.6-1.2-5.1-3.3-7.6-6.3L42.9,77.9c0.4,3.8,0.7,7.5,0.8,11
		c0.1,3.5,0.2,6.9,0.2,10v113.8H0.6V0.4h25.9c2.1,0,3.9,0.1,5.4,0.3c1.5,0.2,2.8,0.6,3.9,1.1c1.2,0.5,2.3,1.3,3.4,2.3
		c1.1,1,2.3,2.3,3.6,3.9l101,127.5c-0.5-4.1-0.8-8-1-11.9c-0.2-3.8-0.3-7.5-0.3-10.9V0.4H185.9z"/>
</g>
<circle class="st2" cx="171.9" cy="171.9" r="84.1"/>
<g class="st3">
	<path class="st4" d="M188.5,187.7c0,5.8-0.7,11.1-2.2,15.9c-1.5,4.8-3.6,8.9-6.6,12.3c-2.9,3.4-6.6,6.1-11.1,7.9
		c-4.4,1.9-9.7,2.8-15.7,2.8c-2.7,0-5.4-0.1-8-0.4s-5.4-0.8-8.3-1.4l1.3-14.1c0.1-1.2,0.6-2.2,1.5-3c0.9-0.8,2.1-1.1,3.6-1.1
		c0.8,0,1.8,0.1,3,0.4c1.2,0.3,2.6,0.4,4.3,0.4c2.3,0,4.4-0.3,6.1-1s3.2-1.7,4.3-3.2s2-3.5,2.6-5.9c0.6-2.4,0.9-5.4,0.9-9v-66.9
		h24.2V187.7z"/>
</g>
<g>
	<circle cx="171.9" cy="140.1" r="63.8"/>
	<circle cx="171.9" cy="253.3" r="92"/>
</g>
<g class="st0">
	<path class="st5" d="M188.5,197.7c0,5.8-0.7,11.1-2.2,15.9c-1.5,4.8-3.6,8.9-6.6,12.3c-2.9,3.4-6.6,6.1-11.1,7.9
		c-4.4,1.9-9.7,2.8-15.7,2.8c-2.7,0-5.4-0.1-8-0.4s-5.4-0.8-8.3-1.4l1.3-14.1c0.1-1.2,0.6-2.2,1.5-3c0.9-0.8,2.1-1.1,3.6-1.1
		c0.8,0,1.8,0.1,3,0.4c1.2,0.3,2.6,0.4,4.3,0.4c2.3,0,4.4-0.3,6.1-1s3.2-1.7,4.3-3.2s2-3.5,2.6-5.9c0.6-2.4,0.9-5.4,0.9-9v-66.9
		h24.2V197.7z"/>
</g>
</svg>
